<?xml version="1.0" encoding="utf-8"?>
<!-- Generator: Adobe Illustrator 21.0.1, SVG Export Plug-In . SVG Version: 6.00 Build 0)  -->
<svg version="1.1" id="Layer_2" xmlns="http://www.w3.org/2000/svg" xmlns:xlink="http://www.w3.org/1999/xlink" x="0px" y="0px"
	 viewBox="0 0 1010.7 1010.7" style="enable-background:new 0 0 1010.7 1010.7;" xml:space="preserve">
<style type="text/css">
	.st0{fill:#FFFFFF;}
</style>
<g>
	<path class="st0" d="M896,76.2c0,0-298.6,205.7-422.7,456.1l-17.7,23.8L353.2,450.7c0,0-76-35.5-101.7,50.9
		c-2.7,24.5,5.2,49.9,23.9,68.5l116.1,115.2c32.5,32.2,85.3,32,117.5-0.5l0,0c9-9.1,15.5-19.9,19.5-31.4
		c65-102.6,279.8-424.4,442.4-466.3C995.8,76.2,896,76.2,896,76.2z"/>
	<path class="st0" d="M789.3,353.3c27.6,49,43.4,105.4,43.4,165.4c0,187.4-153.5,339.9-342.1,339.9S148.5,706.1,148.5,518.7
		s153.5-339.9,342.1-339.9c65.9,0,127.4,18.6,179.7,50.8c29.2-28.7,57.8-54.6,84-77.2c-74.3-53.2-165.4-84.5-263.7-84.5
		c-249.7,0-452.9,202.2-452.9,450.8c0,248.6,203.2,450.8,452.9,450.8s452.9-202.2,452.9-450.8c0-89.6-26.4-173.3-71.9-243.5
		C844.8,297,817.2,323.5,789.3,353.3z"/>
</g>
</svg>
