<?xml version="1.0" encoding="utf-8"?>
<!-- Generator: Adobe Illustrator 21.0.1, SVG Export Plug-In . SVG Version: 6.00 Build 0)  -->
<svg version="1.1" id="Layer_1" xmlns="http://www.w3.org/2000/svg" xmlns:xlink="http://www.w3.org/1999/xlink" x="0px" y="0px"
	 viewBox="0 0 1095 1096" style="enable-background:new 0 0 1095 1096;" xml:space="preserve">
<style type="text/css">
	.st0{fill:#fff;}
</style>
<path class="st0" d="M1078.3,664.4c38.8-111.8,0-216.8,0-216.8l-127.8-33.1c0.4,1.4,0.8,2.8,1.1,4.2c-5.1-15.8-11-31.2-17.8-46.2
	l71.4-117.5c-51.6-106.5-153.3-153.3-153.3-153.3l-113.8,67c1.4,0.8,2.7,1.6,4.1,2.3c-14.7-7.6-29.9-14.3-45.5-20.2L664,17.4
	c-111.8-38.8-216.8,0-216.8,0l-33.1,127.8c1.4-0.4,2.8-0.8,4.2-1.1c-15.8,5.1-31.2,11-46.2,17.8L254.7,90.5
	c-106.5,51.6-153.3,153.3-153.3,153.3l67,113.8c0.8-1.4,1.6-2.7,2.3-4.1c-7.6,14.7-14.3,29.9-20.2,45.5L17,431.6
	c-38.8,111.8,0,216.8,0,216.8l127.8,33.1c-0.4-1.4-0.8-2.8-1.1-4.2c5.1,15.8,11,31.2,17.8,46.2L90.1,840.9
	c51.6,106.5,153.3,153.3,153.3,153.3l113.8-67c-1.4-0.8-2.7-1.6-4.1-2.3c14.7,7.6,29.9,14.3,45.5,20.2l32.6,133.5
	c111.8,38.8,216.8,0,216.8,0l33.1-127.8c-1.4,0.4-2.8,0.8-4.2,1.1c15.8-5.1,31.2-11,46.2-17.8l117.5,71.4
	C947,953.9,993.8,852.2,993.8,852.2l-67-113.8c-0.8,1.4-1.6,2.7-2.3,4.1c7.6-14.7,14.3-29.9,20.2-45.5L1078.3,664.4z M547.6,746.6
	C437.9,746.6,349,657.7,349,548s88.9-198.6,198.6-198.6S746.3,438.3,746.3,548S657.3,746.6,547.6,746.6z"/>
</svg>
